# xmcd
#
# Track frame offsets:
# 182
# 15815
# 32560
# 46652
# 58615
# 72632
# 83225
# 96212
# 108387
# 125702
# 139492
# 154910
# 169430
# 186765
# 200430
# 214757
#
# Disc length: 3010 seconds
#
#
# Revision: 0
# Processed by: cddbd v1.5.1PL2 Copyright (c) Steve Scherf et al.
# Submitted via: FreeRIP 2.93 
#
DISCID=e40bc010
DTITLE=verschiedene - Super Trucker Songs CD 1
DYEAR=1900
DGENRE=Country
TTITLE0=Tom Astor - Ohne dich wär ich nicht ich
TTITLE1=Gunter Gabriel - Libst du 'nen arbeitslosen Star
TTITLE2=Linda Feller - Keiner lügt so schlecht wie wie du
TTITLE3=Tom Astor - Danke, Johnny Cash
TTITLE4=Nashville Music Company - Mein neuer Truck, der fährt schon mit Radar
TTITLE5=Dagmar-The Lady of Country - Bing, Bäng, Bum
TTITLE6=Tom Astor - Nutz die Zeit
TTITLE7=LCE-Ladies Country Express - 10 Tage auf der Autobahn
TTITLE8=Jonny Hill - Sie waren sich zu spät begegnet
TTITLE9=Dröppcher - Un dann dräum ich vun Virginia
TTITLE10=Tom Astor - Harte Zeiten
TTITLE11=Rugy&Howard - Bleifuss und Vollgas
TTITLE12=Rio Carter - Abschied
TTITLE13=Tom Astor - Nur wer die Hölle kennt
TTITLE14=Dirk Maverick - Point B 67
TTITLE15=Tom Astor - Vielen Dank für das freundliche Getue
EXTD=CD 1 von 2
EXTT0=
EXTT1=
EXTT2=
EXTT3=
EXTT4=
EXTT5=
EXTT6=
EXTT7=
EXTT8=
EXTT9=
EXTT10=
EXTT11=
EXTT12=
EXTT13=
EXTT14=
EXTT15=
PLAYORDER=
